# xmcd
#
# Track frame offsets:
#	150
#	22890
#	39518
#	59865
#	72216
#	82475
#	102927
#	117249
#	140708
#	160287
#	173980
#	186421
#	199803
#	218616
#	249635
#	259527
#	275777
#	297276
#
# Disc length: 4115 seconds
#
# Revision: 0
# Processed by: cddbd v1.4PL0 Copyright (c) Steve Scherf et al.
# Submitted via: EasyCDDAExtractor 5.0.0.0
#
DISCID=20101112
DTITLE=Various Artist - Best of the blues cd 4
DYEAR=2000
DGENRE=Blues
TTITLE0=I Know What I've Got
TTITLE1=Don't Let Me Be Misunderstood
TTITLE2=Wang Dang Doodle
TTITLE3=When You Got A Good Friend
TTITLE4=32-20 Blues
TTITLE5=Try A Little Tenderness
TTITLE6=Let Me Love You Baby
TTITLE7=Howlin' For My Baby
TTITLE8=Back On The Streets
TTITLE9=Who Do You Love
TTITLE10=Good Morning Little Schoolgirl
TTITLE11=Baby Please Don't Go
TTITLE12=The Night Time Is The Right Time
TTITLE13=Spoonfull
TTITLE14=The First Time I Met The Blues
TTITLE15=You Ain't No Good
TTITLE16=Love In Vain Blues
TTITLE17=Gone But Not Forgotten
EXTD=
EXTT0=
EXTT1=
EXTT2=
EXTT3=
EXTT4=
EXTT5=
EXTT6=
EXTT7=
EXTT8=
EXTT9=
EXTT10=
EXTT11=
EXTT12=
EXTT13=
EXTT14=
EXTT15=
EXTT16=
EXTT17=
PLAYORDER=
